HIERARCHY
ROOT Hips
{
	OFFSET -0.001795 -0.223333 0.028219
	CHANNELS 6 Xposition Yposition Zposition Zrotation Yrotation Xrotation 
	JOINT LeftUpLeg
	{
		OFFSET 0.069520 -0.091406 -0.006815
		CHANNELS 3 Zrotation Yrotation Xrotation
		JOINT LeftLeg
		{
			OFFSET 0.034277 -0.375199 -0.004496
			CHANNELS 3 Zrotation Yrotation Xrotation
			JOINT LeftFoot
			{
				OFFSET -0.013596 -0.397961 -0.043693
				CHANNELS 3 Zrotation Yrotation Xrotation
				JOINT LeftToe
				{
					OFFSET 0.026358 -0.055791 0.119288
					CHANNELS 3 Zrotation Yrotation Xrotation
					End Site
					{
						OFFSET 0.000000 0.000000 0.000000
					}
				}
			}
		}
	}
	JOINT RightUpLeg
	{
		OFFSET -0.067670 -0.090522 -0.004320
		CHANNELS 3 Zrotation Yrotation Xrotation
		JOINT RightLeg
		{
			OFFSET -0.038290 -0.382569 -0.008850
			CHANNELS 3 Zrotation Yrotation Xrotation
			JOINT RightFoot
			{
				OFFSET 0.015774 -0.398415 -0.042312
				CHANNELS 3 Zrotation Yrotation Xrotation
				JOINT RightToe
				{
					OFFSET -0.025372 -0.048144 0.123348
					CHANNELS 3 Zrotation Yrotation Xrotation
					End Site
					{
						OFFSET 0.000000 0.000000 0.000000
					}
				}
			}
		}
	}
	JOINT Spine
	{
		OFFSET -0.002533 0.108963 -0.026696
		CHANNELS 3 Zrotation Yrotation Xrotation
		JOINT Spine1
		{
			OFFSET 0.005487 0.135180 0.001092
			CHANNELS 3 Zrotation Yrotation Xrotation
			JOINT Spine2
			{
				OFFSET 0.001457 0.052922 0.025425
				CHANNELS 3 Zrotation Yrotation Xrotation
				JOINT Neck
				{
					OFFSET -0.002778 0.213870 -0.042857
					CHANNELS 3 Zrotation Yrotation Xrotation
					JOINT Head
					{
						OFFSET 0.005152 0.064970 0.051349
						CHANNELS 3 Zrotation Yrotation Xrotation
						End Site
						{
							OFFSET 0.000000 0.000000 0.000000
						}
					}
				}
				JOINT LeftShoulder
				{
					OFFSET 0.078845 0.121749 -0.034090
					CHANNELS 3 Zrotation Yrotation Xrotation
					JOINT LeftArm
					{
						OFFSET 0.090977 0.030469 -0.008868
						CHANNELS 3 Zrotation Yrotation Xrotation
						JOINT LeftForeArm
						{
							OFFSET 0.259612 -0.012772 -0.027456
							CHANNELS 3 Zrotation Yrotation Xrotation
							JOINT LeftHand
							{
								OFFSET 0.249234 0.008986 -0.001171
								CHANNELS 3 Zrotation Yrotation Xrotation
								End Site
								{
									OFFSET 0.000000 0.000000 0.000000
								}
							}
						}
					}
				}
				JOINT RightShoulder
				{
					OFFSET -0.081759 0.118833 -0.038615
					CHANNELS 3 Zrotation Yrotation Xrotation
					JOINT RightArm
					{
						OFFSET -0.096012 0.032551 -0.009143
						CHANNELS 3 Zrotation Yrotation Xrotation
						JOINT RightForeArm
						{
							OFFSET -0.253742 -0.013329 -0.021401
							CHANNELS 3 Zrotation Yrotation Xrotation
							JOINT RightHand
							{
								OFFSET -0.255298 0.007772 -0.005559
								CHANNELS 3 Zrotation Yrotation Xrotation
								End Site
								{
									OFFSET 0.000000 0.000000 0.000000
								}
							}
						}
					}
				}
			}
		}
	}
}
MOTION
Frames: 6
Frame Time: 0.050000
0.000000 0.948523 0.000000 -0.839788 -2.009868 0.192664 -2.790852 0.470795 3.751707 2.075716 -0.049435 -3.541429 -3.915386 -4.104869 7.803934 0.000000 0.000000 0.000000 3.043225 0.058368 -1.107820 -2.397309 0.277158 0.499009 6.248102 9.286429 8.480252 0.000000 0.000000 0.000000 5.370348 -0.244841 2.289914 -1.303998 0.622154 0.626096 -2.780371 3.584602 5.365090 6.954739 -2.909652 -15.274036 0.000000 0.000000 0.000000 -22.787499 -8.279655 1.573719 -48.822180 -3.975848 -4.027229 -6.587960 -24.582194 2.224682 0.000000 0.000000 0.000000 22.302755 0.803322 -0.698238 53.765751 3.419790 -4.013522 2.049294 26.232772 1.515626 0.000000 0.000000 0.000000 
-0.001259 0.947150 0.001511 -1.318516 -2.119533 0.612424 -1.459241 0.462755 4.201736 0.764989 0.114012 -4.896206 -3.930665 -4.215018 7.654773 0.000000 0.000000 0.000000 3.564540 0.164561 -2.017156 -2.237065 0.321104 1.522841 6.120184 9.366679 7.963638 0.000000 0.000000 0.000000 6.020868 -0.249044 2.051849 -1.193457 0.563414 1.323251 -3.769833 4.130230 4.831866 7.973974 -3.258872 -16.411149 0.000000 0.000000 0.000000 -22.144275 -8.830441 1.662954 -49.432378 -4.244988 -3.862436 -5.316105 -24.655393 1.913579 0.000000 0.000000 0.000000 22.665924 0.167058 -0.885314 54.671142 2.631112 -4.411893 1.422311 27.279845 1.493680 0.000000 0.000000 0.000000 
-0.002798 0.946663 0.003223 -0.959684 -2.339205 0.839481 -1.703603 0.428742 3.771013 0.620262 0.102360 -4.362300 -3.776442 -4.045903 7.468336 0.000000 0.000000 0.000000 3.567861 0.197543 -2.297509 -2.793749 0.399801 1.748887 6.063845 9.540243 7.511916 0.000000 0.000000 0.000000 6.118743 -0.265681 2.156068 -1.504123 0.723044 -0.555995 -3.770856 4.049309 6.677943 6.980010 -2.590995 -17.265703 0.000000 0.000000 0.000000 -21.463126 -8.851670 1.889091 -49.753177 -5.187151 -3.727601 -5.270313 -23.386057 1.840361 0.000000 0.000000 0.000000 23.257569 0.116372 -0.971251 54.006445 2.482695 -4.607372 1.396002 27.364624 1.501478 0.000000 0.000000 0.000000 
-0.004878 0.946767 0.005816 -1.074043 -2.343609 1.085939 -1.287750 0.461183 4.242811 0.345907 0.161336 -5.357612 -3.891175 -4.106775 7.777737 0.000000 0.000000 0.000000 3.925887 0.273675 -2.901896 -2.960685 0.482187 2.675510 5.972088 9.490356 7.302425 0.000000 0.000000 0.000000 6.152755 -0.252855 1.953598 -1.268367 0.607457 0.072662 -3.864645 4.174442 6.334936 7.416468 -2.800801 -17.431451 0.000000 0.000000 0.000000 -21.510913 -9.247321 2.042829 -49.697204 -5.103206 -3.702078 -4.418007 -23.753848 1.682711 0.000000 0.000000 0.000000 23.400331 -0.033259 -1.027065 53.850869 2.180352 -4.706426 0.874404 27.835797 1.422000 0.000000 0.000000 0.000000 
-0.007393 0.946870 0.009269 -1.024532 -2.137215 1.205932 -1.580596 0.481350 4.296476 1.097243 0.109793 -5.313079 -3.931270 -4.193294 7.715625 0.000000 0.000000 0.000000 4.030212 0.310421 -3.174168 -2.922957 0.524857 3.368878 5.800723 9.309242 7.052385 0.000000 0.000000 0.000000 6.271750 -0.256727 1.929662 -1.125746 0.539449 -0.002963 -4.096105 3.811053 6.276342 7.441543 -2.899900 -17.045382 0.000000 0.000000 0.000000 -21.363901 -9.549047 2.284694 -49.660692 -5.292579 -3.633579 -4.131049 -23.607201 1.622982 0.000000 0.000000 0.000000 22.924363 -0.316662 -1.243979 54.136133 1.775767 -4.861155 1.279852 27.952403 1.506923 0.000000 0.000000 0.000000 
-0.010454 0.946412 0.014119 -1.140299 -2.217208 1.266865 -1.613999 0.522705 4.655906 1.712106 0.076868 -5.464608 -3.810915 -4.101254 7.466315 0.000000 0.000000 0.000000 4.285925 0.336753 -3.373736 -2.804188 0.564925 4.201183 5.718543 9.394727 6.670867 0.000000 0.000000 0.000000 6.391350 -0.276437 2.086444 -1.132150 0.543243 -0.115491 -3.878337 3.664669 6.341926 7.469499 -2.934798 -17.090663 0.000000 0.000000 0.000000 -21.576371 -9.508076 2.325402 -49.484827 -5.382723 -3.601325 -3.496594 -23.822679 1.516944 0.000000 0.000000 0.000000 22.559270 -0.154401 -1.193332 54.437430 1.704409 -4.898608 0.658846 27.931009 1.352037 0.000000 0.000000 0.000000 
